<mxfile host="app.diagrams.net" modified="2023-11-02T14:53:31.296Z" agent="Mozilla/5.0 (Windows NT 10.0; Win64; x64) AppleWebKit/537.36 (KHTML, like Gecko) Chrome/118.0.0.0 Safari/537.36" etag="Ss6diIqjgmbAz7_tQAgl" version="22.0.8" type="device">
  <diagram name="第 1 页" id="Y4QiE0Ulpa0oampLLU4p">
    <mxGraphModel dx="1637" dy="874" grid="0" gridSize="10" guides="1" tooltips="1" connect="1" arrows="1" fold="1" page="1" pageScale="1" pageWidth="827" pageHeight="1169" math="0" shadow="0">
      <root>
        <mxCell id="0" />
        <mxCell id="1" parent="0" />
        <mxCell id="1dEu9fa0sNmvPurThqIe-1" value="&lt;font style=&quot;font-size: 24px;&quot;&gt;實現關係:&lt;/font&gt;" style="text;html=1;strokeColor=none;fillColor=none;align=center;verticalAlign=middle;whiteSpace=wrap;rounded=0;" vertex="1" parent="1">
          <mxGeometry x="-814" y="56" width="152" height="40" as="geometry" />
        </mxCell>
        <mxCell id="1dEu9fa0sNmvPurThqIe-2" value="" style="endArrow=none;dashed=1;html=1;rounded=0;exitX=1;exitY=0.5;exitDx=0;exitDy=0;" edge="1" parent="1" source="1dEu9fa0sNmvPurThqIe-3">
          <mxGeometry width="50" height="50" relative="1" as="geometry">
            <mxPoint x="-450" y="289" as="sourcePoint" />
            <mxPoint x="-603" y="76" as="targetPoint" />
          </mxGeometry>
        </mxCell>
        <mxCell id="1dEu9fa0sNmvPurThqIe-5" value="" style="endArrow=none;dashed=1;html=1;rounded=0;exitX=1;exitY=0.5;exitDx=0;exitDy=0;" edge="1" parent="1" source="1dEu9fa0sNmvPurThqIe-1" target="1dEu9fa0sNmvPurThqIe-3">
          <mxGeometry width="50" height="50" relative="1" as="geometry">
            <mxPoint x="-662" y="76" as="sourcePoint" />
            <mxPoint x="-603" y="76" as="targetPoint" />
          </mxGeometry>
        </mxCell>
        <mxCell id="1dEu9fa0sNmvPurThqIe-3" value="" style="shape=offPageConnector;whiteSpace=wrap;html=1;direction=north;" vertex="1" parent="1">
          <mxGeometry x="-604" y="70" width="34" height="12" as="geometry" />
        </mxCell>
        <mxCell id="1dEu9fa0sNmvPurThqIe-6" value="Shape" style="swimlane;fontStyle=1;align=center;verticalAlign=top;childLayout=stackLayout;horizontal=1;startSize=26;horizontalStack=0;resizeParent=1;resizeParentMax=0;resizeLast=0;collapsible=1;marginBottom=0;whiteSpace=wrap;html=1;" vertex="1" parent="1">
          <mxGeometry x="-634" y="136" width="184" height="86" as="geometry" />
        </mxCell>
        <mxCell id="1dEu9fa0sNmvPurThqIe-7" value="&amp;nbsp;" style="text;strokeColor=none;fillColor=none;align=left;verticalAlign=top;spacingLeft=4;spacingRight=4;overflow=hidden;rotatable=0;points=[[0,0.5],[1,0.5]];portConstraint=eastwest;whiteSpace=wrap;html=1;" vertex="1" parent="1dEu9fa0sNmvPurThqIe-6">
          <mxGeometry y="26" width="184" height="26" as="geometry" />
        </mxCell>
        <mxCell id="1dEu9fa0sNmvPurThqIe-8" value="" style="line;strokeWidth=1;fillColor=none;align=left;verticalAlign=middle;spacingTop=-1;spacingLeft=3;spacingRight=3;rotatable=0;labelPosition=right;points=[];portConstraint=eastwest;strokeColor=inherit;" vertex="1" parent="1dEu9fa0sNmvPurThqIe-6">
          <mxGeometry y="52" width="184" height="8" as="geometry" />
        </mxCell>
        <mxCell id="1dEu9fa0sNmvPurThqIe-9" value="+Draw()" style="text;strokeColor=none;fillColor=none;align=left;verticalAlign=top;spacingLeft=4;spacingRight=4;overflow=hidden;rotatable=0;points=[[0,0.5],[1,0.5]];portConstraint=eastwest;whiteSpace=wrap;html=1;" vertex="1" parent="1dEu9fa0sNmvPurThqIe-6">
          <mxGeometry y="60" width="184" height="26" as="geometry" />
        </mxCell>
        <mxCell id="1dEu9fa0sNmvPurThqIe-11" value="" style="endArrow=block;dashed=1;endFill=0;endSize=12;html=1;rounded=0;" edge="1" parent="1">
          <mxGeometry width="160" relative="1" as="geometry">
            <mxPoint x="-657" y="294" as="sourcePoint" />
            <mxPoint x="-622" y="219" as="targetPoint" />
          </mxGeometry>
        </mxCell>
        <mxCell id="1dEu9fa0sNmvPurThqIe-13" value="Circle" style="swimlane;fontStyle=1;align=center;verticalAlign=top;childLayout=stackLayout;horizontal=1;startSize=26;horizontalStack=0;resizeParent=1;resizeParentMax=0;resizeLast=0;collapsible=1;marginBottom=0;whiteSpace=wrap;html=1;" vertex="1" parent="1">
          <mxGeometry x="-746" y="294" width="160" height="86" as="geometry" />
        </mxCell>
        <mxCell id="1dEu9fa0sNmvPurThqIe-14" value="&amp;nbsp;" style="text;strokeColor=none;fillColor=none;align=left;verticalAlign=top;spacingLeft=4;spacingRight=4;overflow=hidden;rotatable=0;points=[[0,0.5],[1,0.5]];portConstraint=eastwest;whiteSpace=wrap;html=1;" vertex="1" parent="1dEu9fa0sNmvPurThqIe-13">
          <mxGeometry y="26" width="160" height="26" as="geometry" />
        </mxCell>
        <mxCell id="1dEu9fa0sNmvPurThqIe-15" value="" style="line;strokeWidth=1;fillColor=none;align=left;verticalAlign=middle;spacingTop=-1;spacingLeft=3;spacingRight=3;rotatable=0;labelPosition=right;points=[];portConstraint=eastwest;strokeColor=inherit;" vertex="1" parent="1dEu9fa0sNmvPurThqIe-13">
          <mxGeometry y="52" width="160" height="8" as="geometry" />
        </mxCell>
        <mxCell id="1dEu9fa0sNmvPurThqIe-16" value="+Draw()" style="text;strokeColor=none;fillColor=none;align=left;verticalAlign=top;spacingLeft=4;spacingRight=4;overflow=hidden;rotatable=0;points=[[0,0.5],[1,0.5]];portConstraint=eastwest;whiteSpace=wrap;html=1;" vertex="1" parent="1dEu9fa0sNmvPurThqIe-13">
          <mxGeometry y="60" width="160" height="26" as="geometry" />
        </mxCell>
        <mxCell id="1dEu9fa0sNmvPurThqIe-25" value="Rectangle" style="swimlane;fontStyle=1;align=center;verticalAlign=top;childLayout=stackLayout;horizontal=1;startSize=26;horizontalStack=0;resizeParent=1;resizeParentMax=0;resizeLast=0;collapsible=1;marginBottom=0;whiteSpace=wrap;html=1;" vertex="1" parent="1">
          <mxGeometry x="-503" y="294" width="160" height="86" as="geometry" />
        </mxCell>
        <mxCell id="1dEu9fa0sNmvPurThqIe-26" value="&amp;nbsp;" style="text;strokeColor=none;fillColor=none;align=left;verticalAlign=top;spacingLeft=4;spacingRight=4;overflow=hidden;rotatable=0;points=[[0,0.5],[1,0.5]];portConstraint=eastwest;whiteSpace=wrap;html=1;" vertex="1" parent="1dEu9fa0sNmvPurThqIe-25">
          <mxGeometry y="26" width="160" height="26" as="geometry" />
        </mxCell>
        <mxCell id="1dEu9fa0sNmvPurThqIe-27" value="" style="line;strokeWidth=1;fillColor=none;align=left;verticalAlign=middle;spacingTop=-1;spacingLeft=3;spacingRight=3;rotatable=0;labelPosition=right;points=[];portConstraint=eastwest;strokeColor=inherit;" vertex="1" parent="1dEu9fa0sNmvPurThqIe-25">
          <mxGeometry y="52" width="160" height="8" as="geometry" />
        </mxCell>
        <mxCell id="1dEu9fa0sNmvPurThqIe-28" value="+Draw()" style="text;strokeColor=none;fillColor=none;align=left;verticalAlign=top;spacingLeft=4;spacingRight=4;overflow=hidden;rotatable=0;points=[[0,0.5],[1,0.5]];portConstraint=eastwest;whiteSpace=wrap;html=1;" vertex="1" parent="1dEu9fa0sNmvPurThqIe-25">
          <mxGeometry y="60" width="160" height="26" as="geometry" />
        </mxCell>
        <mxCell id="1dEu9fa0sNmvPurThqIe-29" value="" style="endArrow=block;dashed=1;endFill=0;endSize=12;html=1;rounded=0;exitX=0.5;exitY=0;exitDx=0;exitDy=0;entryX=0.252;entryY=0.975;entryDx=0;entryDy=0;entryPerimeter=0;" edge="1" parent="1" source="1dEu9fa0sNmvPurThqIe-25" target="1dEu9fa0sNmvPurThqIe-9">
          <mxGeometry width="160" relative="1" as="geometry">
            <mxPoint x="-505" y="264" as="sourcePoint" />
            <mxPoint x="-504" y="224" as="targetPoint" />
          </mxGeometry>
        </mxCell>
        <mxCell id="1dEu9fa0sNmvPurThqIe-30" value="&lt;span style=&quot;font-size: 18px;&quot;&gt;類Circle、Rectangle實現了接口Shape的操作&lt;/span&gt;" style="text;html=1;strokeColor=none;fillColor=none;align=center;verticalAlign=middle;whiteSpace=wrap;rounded=0;" vertex="1" parent="1">
          <mxGeometry x="-380" y="169" width="148" height="30" as="geometry" />
        </mxCell>
      </root>
    </mxGraphModel>
  </diagram>
</mxfile>
